<svg width="29" height="29" viewBox="0 0 29 29" fill="none" xmlns="http://www.w3.org/2000/svg">
<path d="M3.62486 21.0975V24.7708C3.62486 25.1091 3.8907 25.375 4.22903 25.375H7.90236C8.05944 25.375 8.21653 25.3146 8.32528 25.1937L21.5203 12.0108L16.989 7.47957L3.80611 20.6625C3.68528 20.7833 3.62486 20.9283 3.62486 21.0975ZM25.0244 8.50665C25.1365 8.39486 25.2253 8.26208 25.286 8.1159C25.3466 7.96973 25.3778 7.81303 25.3778 7.65477C25.3778 7.49652 25.3466 7.33982 25.286 7.19364C25.2253 7.04747 25.1365 6.91469 25.0244 6.8029L22.1969 3.9754C22.0852 3.86338 21.9524 3.77451 21.8062 3.71388C21.66 3.65324 21.5033 3.62203 21.3451 3.62203C21.1868 3.62203 21.0301 3.65324 20.8839 3.71388C20.7378 3.77451 20.605 3.86338 20.4932 3.9754L18.2819 6.18665L22.8132 10.7179L25.0244 8.50665Z" fill="#E3ECF1"/>
</svg>
