<svg width="28" height="28" viewBox="0 0 28 28" fill="none" xmlns="http://www.w3.org/2000/svg">
<path d="M24.4081 7.48344L22.6581 3.98344C22.5854 3.83807 22.4736 3.71583 22.3353 3.63044C22.1969 3.54505 22.0376 3.49988 21.875 3.5H6.125C5.96244 3.49988 5.80307 3.54505 5.66474 3.63044C5.52642 3.71583 5.41462 3.83807 5.34188 3.98344L3.59188 7.48344C3.53156 7.60516 3.50012 7.73915 3.5 7.875V22.75C3.5 23.2141 3.68437 23.6592 4.01256 23.9874C4.34075 24.3156 4.78587 24.5 5.25 24.5H22.75C23.2141 24.5 23.6592 24.3156 23.9874 23.9874C24.3156 23.6592 24.5 23.2141 24.5 22.75V7.875C24.4999 7.73915 24.4684 7.60516 24.4081 7.48344ZM6.66531 5.25H21.3347L22.2097 7H5.79031L6.66531 5.25ZM22.75 22.75H5.25V8.75H22.75V22.75ZM18.1191 16.0059C18.2004 16.0872 18.265 16.1837 18.309 16.2899C18.353 16.3962 18.3757 16.51 18.3757 16.625C18.3757 16.74 18.353 16.8538 18.309 16.9601C18.265 17.0663 18.2004 17.1628 18.1191 17.2441L14.6191 20.7441C14.5378 20.8254 14.4413 20.89 14.3351 20.934C14.2288 20.978 14.115 21.0007 14 21.0007C13.885 21.0007 13.7712 20.978 13.6649 20.934C13.5587 20.89 13.4622 20.8254 13.3809 20.7441L9.88094 17.2441C9.71675 17.0799 9.62451 16.8572 9.62451 16.625C9.62451 16.3928 9.71675 16.1701 9.88094 16.0059C10.0451 15.8418 10.2678 15.7495 10.5 15.7495C10.7322 15.7495 10.9549 15.8418 11.1191 16.0059L13.125 18.013V11.375C13.125 11.1429 13.2172 10.9204 13.3813 10.7563C13.5454 10.5922 13.7679 10.5 14 10.5C14.2321 10.5 14.4546 10.5922 14.6187 10.7563C14.7828 10.9204 14.875 11.1429 14.875 11.375V18.013L16.8809 16.0059C16.9622 15.9246 17.0587 15.86 17.1649 15.816C17.2712 15.772 17.385 15.7493 17.5 15.7493C17.615 15.7493 17.7288 15.772 17.8351 15.816C17.9413 15.86 18.0378 15.9246 18.1191 16.0059Z" fill="#828F97"/>
</svg>
