<svg width="21" height="21" viewBox="0 0 21 21" fill="none" xmlns="http://www.w3.org/2000/svg">
<path d="M10.5 0C8.4233 0 6.39323 0.615814 4.66652 1.76957C2.9398 2.92332 1.59399 4.5632 0.799269 6.48182C0.0045495 8.40045 -0.203386 10.5116 0.201759 12.5484C0.606904 14.5852 1.60693 16.4562 3.07538 17.9246C4.54383 19.3931 6.41475 20.3931 8.45155 20.7982C10.4884 21.2034 12.5996 20.9955 14.5182 20.2007C16.4368 19.406 18.0767 18.0602 19.2304 16.3335C20.3842 14.6068 21 12.5767 21 10.5C20.9965 7.71629 19.8892 5.04759 17.9208 3.07921C15.9524 1.11083 13.2837 0.00347313 10.5 0ZM14.5385 11.3077H11.3077V14.5385C11.3077 14.7527 11.2226 14.9581 11.0711 15.1096C10.9197 15.2611 10.7142 15.3462 10.5 15.3462C10.2858 15.3462 10.0803 15.2611 9.92888 15.1096C9.77741 14.9581 9.69231 14.7527 9.69231 14.5385V11.3077H6.46154C6.24733 11.3077 6.04189 11.2226 5.89042 11.0711C5.73895 10.9197 5.65385 10.7142 5.65385 10.5C5.65385 10.2858 5.73895 10.0803 5.89042 9.92887C6.04189 9.7774 6.24733 9.69231 6.46154 9.69231H9.69231V6.46154C9.69231 6.24732 9.77741 6.04188 9.92888 5.89041C10.0803 5.73894 10.2858 5.65385 10.5 5.65385C10.7142 5.65385 10.9197 5.73894 11.0711 5.89041C11.2226 6.04188 11.3077 6.24732 11.3077 6.46154V9.69231H14.5385C14.7527 9.69231 14.9581 9.7774 15.1096 9.92887C15.2611 10.0803 15.3462 10.2858 15.3462 10.5C15.3462 10.7142 15.2611 10.9197 15.1096 11.0711C14.9581 11.2226 14.7527 11.3077 14.5385 11.3077Z" fill="#00A884"/>
</svg>
