<svg width="20" height="20" viewBox="0 0 20 20" fill="none" xmlns="http://www.w3.org/2000/svg">
<path d="M1.99998 10L9.67598 17.676C10.7415 18.7142 12.1731 19.2908 13.6607 19.2812C15.1484 19.2715 16.5723 18.6762 17.6243 17.6243C18.6762 16.5723 19.2714 15.1484 19.2811 13.6608C19.2908 12.1731 18.7141 10.7415 17.676 9.67601L9.77064 1.77068C9.0634 1.06343 8.10417 0.666107 7.10398 0.666107C6.10378 0.666107 5.14455 1.06343 4.43731 1.77068C3.73006 2.47792 3.33274 3.43715 3.33274 4.43734C3.33274 5.43754 3.73006 6.39677 4.43731 7.10401L12.1146 14.7813C12.4683 15.135 12.9479 15.3336 13.448 15.3336C13.9481 15.3336 14.4277 15.135 14.7813 14.7813C15.1349 14.4277 15.3336 13.9481 15.3336 13.448C15.3336 12.9479 15.1349 12.4683 14.7813 12.1147L7.33331 4.66668" stroke="#8696A1"/>
</svg>
