<svg width="28" height="28" viewBox="0 0 28 28" fill="none" xmlns="http://www.w3.org/2000/svg">
<path d="M5.83342 7H22.1668C22.8084 7 23.3334 6.475 23.3334 5.83333C23.3334 5.19167 22.8084 4.66667 22.1668 4.66667H5.83342C5.19175 4.66667 4.66675 5.19167 4.66675 5.83333C4.66675 6.475 5.19175 7 5.83342 7ZM23.5201 9.1C23.4151 8.56333 22.9368 8.16667 22.3768 8.16667H5.62342C5.06342 8.16667 4.58509 8.56333 4.48009 9.1L3.31342 14.9333C3.17342 15.6567 3.72175 16.3333 4.45675 16.3333H4.66675V22.1667C4.66675 22.8083 5.19175 23.3333 5.83342 23.3333H15.1668C15.8084 23.3333 16.3334 22.8083 16.3334 22.1667V16.3333H21.0001V22.1667C21.0001 22.8083 21.5251 23.3333 22.1668 23.3333C22.8084 23.3333 23.3334 22.8083 23.3334 22.1667V16.3333H23.5434C24.2784 16.3333 24.8268 15.6567 24.6868 14.9333L23.5201 9.1ZM14.0001 21H7.00009V16.3333H14.0001V21Z" fill="#8596A0"/>
</svg>
