<svg width="23" height="23" viewBox="0 0 23 23" fill="none" xmlns="http://www.w3.org/2000/svg">
<g clip-path="url(#clip0_6_790)">
<path fill-rule="evenodd" clip-rule="evenodd" d="M5.60371 15.6663C5.68264 15.778 5.8027 15.8537 5.93749 15.8769C6.07228 15.9001 6.21076 15.8687 6.32246 15.7898L16.2559 8.77085L15.4776 13.2938C15.4661 13.3606 15.4679 13.4291 15.4828 13.4952C15.4978 13.5613 15.5256 13.6239 15.5648 13.6793C15.6039 13.7346 15.6535 13.7818 15.7109 13.818C15.7682 13.8541 15.8321 13.8787 15.899 13.8902C15.9658 13.9017 16.0342 13.8999 16.1004 13.8849C16.1665 13.87 16.229 13.8421 16.2844 13.803C16.3398 13.7639 16.3869 13.7142 16.4231 13.6569C16.4593 13.5995 16.4838 13.5356 16.4953 13.4688L17.4839 7.71879C17.4954 7.65196 17.4937 7.58349 17.4788 7.51733C17.4639 7.45116 17.436 7.38858 17.3969 7.33318C17.3577 7.27779 17.3081 7.23066 17.2507 7.19449C17.1933 7.15833 17.1293 7.13384 17.0625 7.12243L11.3125 6.13389C11.2456 6.1224 11.1772 6.12419 11.1111 6.13915C11.0449 6.15411 10.9824 6.18195 10.927 6.22108C10.8716 6.26021 10.8245 6.30986 10.7883 6.3672C10.7521 6.42455 10.7276 6.48846 10.7161 6.55528C10.7046 6.62211 10.7064 6.69054 10.7214 6.75668C10.7363 6.82281 10.7642 6.88536 10.8033 6.94073C10.8424 6.99611 10.8921 7.04324 10.9494 7.07943C11.0068 7.11561 11.0707 7.14015 11.1375 7.15164L15.6607 7.92853L5.72728 14.9475C5.61558 15.0264 5.53981 15.1465 5.51664 15.2813C5.49346 15.4161 5.52478 15.5546 5.60371 15.6663Z" fill="#00A884"/>
</g>
<defs>
<clipPath id="clip0_6_790">
<rect width="16" height="16" fill="white" transform="translate(23 13.4771) scale(1.03138) rotate(144.755)"/>
</clipPath>
</defs>
</svg>
