<svg width="23" height="23" viewBox="0 0 23 23" fill="none" xmlns="http://www.w3.org/2000/svg">
<g clip-path="url(#clip0_6_752)">
<path fill-rule="evenodd" clip-rule="evenodd" d="M17.3963 7.33371C17.3174 7.22201 17.1973 7.14624 17.0625 7.12307C16.9277 7.0999 16.7892 7.13122 16.6775 7.21014L6.7441 14.2291L7.52243 9.70616C7.53392 9.63933 7.53214 9.5709 7.51718 9.50476C7.50222 9.43862 7.47438 9.37608 7.43525 9.3207C7.39612 9.26533 7.34647 9.2182 7.28912 9.18201C7.23178 9.14582 7.16787 9.12129 7.10104 9.1098C7.03422 9.09831 6.96578 9.10009 6.89965 9.11505C6.83351 9.13001 6.77097 9.15785 6.71559 9.19698C6.66021 9.23611 6.61309 9.28576 6.5769 9.34311C6.54071 9.40045 6.51617 9.46436 6.50468 9.53118L5.51614 15.2812C5.50457 15.348 5.50629 15.4165 5.52121 15.4826C5.53613 15.5488 5.56396 15.6114 5.60311 15.6668C5.64225 15.7222 5.69194 15.7693 5.74933 15.8055C5.80671 15.8416 5.87067 15.8661 5.93753 15.8775L11.6875 16.8661C11.7544 16.8776 11.8228 16.8758 11.8889 16.8608C11.9551 16.8459 12.0176 16.818 12.073 16.7789C12.1284 16.7398 12.1755 16.6901 12.2117 16.6328C12.2479 16.5754 12.2724 16.5115 12.2839 16.4447C12.2954 16.3779 12.2936 16.3094 12.2786 16.2433C12.2637 16.1772 12.2358 16.1146 12.1967 16.0592C12.1576 16.0039 12.1079 15.9567 12.0506 15.9205C11.9932 15.8844 11.9293 15.8598 11.8625 15.8483L7.33929 15.0714L17.2727 8.05246C17.3844 7.97354 17.4602 7.85347 17.4834 7.71868C17.5065 7.58389 17.4752 7.44541 17.3963 7.33371Z" fill="#CC475E"/>
</g>
<defs>
<clipPath id="clip0_6_752">
<rect width="16" height="16" fill="white" transform="translate(0 9.52291) scale(1.03138) rotate(-35.2451)"/>
</clipPath>
</defs>
</svg>
