<svg width="28" height="28" viewBox="0 0 28 28" fill="none" xmlns="http://www.w3.org/2000/svg">
<path d="M7.00016 18.0833V22.1667C7.00016 22.4761 7.12308 22.7728 7.34187 22.9916C7.56066 23.2104 7.85741 23.3333 8.16683 23.3333C8.47625 23.3333 8.77299 23.2104 8.99179 22.9916C9.21058 22.7728 9.3335 22.4761 9.3335 22.1667V18.0833H7.00016ZM4.0835 15.1667V11.6667C4.0835 11.2025 4.26787 10.7574 4.59606 10.4292C4.92425 10.101 5.36937 9.91666 5.8335 9.91666H9.3335V16.9167H5.8335C5.36937 16.9167 4.92425 16.7323 4.59606 16.4041C4.26787 16.0759 4.0835 15.6308 4.0835 15.1667ZM19.8335 13.4167V12.8333C19.8335 12.3692 19.6491 11.9241 19.3209 11.5959C18.9927 11.2677 18.5476 11.0833 18.0835 11.0833V15.1667C18.5476 15.1667 18.9927 14.9823 19.3209 14.6541C19.6491 14.3259 19.8335 13.8808 19.8335 13.4167ZM10.5002 17.5V8.75L16.0202 5.23716C16.1084 5.18102 16.2101 5.14961 16.3146 5.14623C16.4191 5.14284 16.5226 5.16761 16.6143 5.21794C16.7059 5.26826 16.7824 5.3423 16.8356 5.4323C16.8888 5.52229 16.9169 5.62494 16.9168 5.7295V20.5205C16.9169 20.6251 16.8888 20.7277 16.8356 20.8177C16.7824 20.9077 16.7059 20.9817 16.6143 21.0321C16.5226 21.0824 16.4191 21.1072 16.3146 21.1038C16.2101 21.1004 16.1084 21.069 16.0202 21.0128L10.5002 17.5Z" fill="#86949D"/>
<path fill-rule="evenodd" clip-rule="evenodd" d="M23.8188 10.1762C23.8613 10.24 23.8908 10.3115 23.9057 10.3866C23.9206 10.4618 23.9206 10.5391 23.9056 10.6143C23.8906 10.6894 23.8609 10.7608 23.8183 10.8245C23.7757 10.8882 23.7209 10.9428 23.6572 10.9853L21.9072 12.152C21.8434 12.1945 21.772 12.2241 21.6968 12.2389C21.6217 12.2538 21.5443 12.2538 21.4692 12.2388C21.394 12.2238 21.3226 12.1941 21.2589 12.1515C21.1953 12.1089 21.1406 12.0542 21.0981 11.9904C21.0556 11.9267 21.026 11.8552 21.0112 11.78C20.9963 11.7049 20.9963 11.6275 21.0113 11.5524C21.0263 11.4773 21.056 11.4058 21.0986 11.3422C21.1412 11.2785 21.1959 11.2238 21.2597 11.1813L23.0097 10.0147C23.0734 9.97214 23.1449 9.94259 23.2201 9.92769C23.2952 9.9128 23.3726 9.91286 23.4477 9.92786C23.5228 9.94287 23.5943 9.97253 23.6579 10.0151C23.7216 10.0578 23.7763 10.1125 23.8188 10.1762ZM21.0001 14C21.0001 13.8453 21.0616 13.6969 21.171 13.5875C21.2804 13.4781 21.4287 13.4167 21.5834 13.4167H23.9168C24.0715 13.4167 24.2199 13.4781 24.3292 13.5875C24.4386 13.6969 24.5001 13.8453 24.5001 14C24.5001 14.1547 24.4386 14.3031 24.3292 14.4125C24.2199 14.5219 24.0715 14.5833 23.9168 14.5833H21.5834C21.4287 14.5833 21.2804 14.5219 21.171 14.4125C21.0616 14.3031 21.0001 14.1547 21.0001 14ZM21.0981 16.0096C21.1406 15.9458 21.1953 15.8911 21.2589 15.8485C21.3226 15.8059 21.394 15.7762 21.4692 15.7612C21.5443 15.7462 21.6217 15.7461 21.6968 15.761C21.772 15.7759 21.8435 15.8055 21.9072 15.848L23.6572 17.0147C23.7209 17.0572 23.7757 17.1118 23.8183 17.1755C23.8609 17.2392 23.8905 17.3106 23.9055 17.3857C23.9205 17.4609 23.9206 17.5382 23.9057 17.6134C23.8908 17.6885 23.8613 17.76 23.8188 17.8238C23.7763 17.8875 23.7216 17.9422 23.6579 17.9848C23.5943 18.0274 23.5228 18.0571 23.4477 18.0721C23.3726 18.0871 23.2952 18.0872 23.2201 18.0723C23.1449 18.0574 23.0734 18.0278 23.0097 17.9853L21.2597 16.8187C21.1959 16.7762 21.1412 16.7215 21.0986 16.6578C21.056 16.5942 21.0263 16.5227 21.0113 16.4476C20.9963 16.3725 20.9962 16.2951 21.0111 16.22C21.026 16.1448 21.0556 16.0733 21.0981 16.0096Z" fill="#86949D"/>
</svg>
