<svg width="32" height="32" viewBox="0 0 32 32" fill="none" xmlns="http://www.w3.org/2000/svg">
<path d="M5.20008 16C5.20008 13.72 7.05341 11.8667 9.33341 11.8667H14.6667V9.33334H9.33341C5.65341 9.33334 2.66675 12.32 2.66675 16C2.66675 19.68 5.65341 22.6667 9.33341 22.6667H14.6667V20.1333H9.33341C7.05341 20.1333 5.20008 18.28 5.20008 16ZM10.6667 17.3333H21.3334V14.6667H10.6667V17.3333ZM22.6667 9.33334H17.3334V11.8667H22.6667C24.9467 11.8667 26.8001 13.72 26.8001 16C26.8001 18.28 24.9467 20.1333 22.6667 20.1333H17.3334V22.6667H22.6667C26.3467 22.6667 29.3334 19.68 29.3334 16C29.3334 12.32 26.3467 9.33334 22.6667 9.33334Z" fill="#1F2C34"/>
</svg>
