<svg width="32" height="32" viewBox="0 0 32 32" fill="none" xmlns="http://www.w3.org/2000/svg">
<path d="M5.33333 4C4.97971 4 4.64057 4.14048 4.39052 4.39052C4.14048 4.64057 4 4.97971 4 5.33333C4 11.3449 6.38809 17.1103 10.6389 21.3611C14.8897 25.6119 20.6551 28 26.6667 28C27.0203 28 27.3594 27.8595 27.6095 27.6095C27.8595 27.3594 28 27.0203 28 26.6667V22C28 21.6464 27.8595 21.3072 27.6095 21.0572C27.3594 20.8071 27.0203 20.6667 26.6667 20.6667C25.0133 20.6667 23.4 20.4 21.9067 19.9067C21.44 19.76 20.92 19.8667 20.5467 20.24L17.6133 23.1733C13.8339 21.2405 10.7595 18.1661 8.82667 14.3867L11.76 11.44C12.1333 11.08 12.24 10.56 12.0933 10.0933C11.6 8.6 11.3333 6.98667 11.3333 5.33333C11.3333 4.97971 11.1929 4.64057 10.9428 4.39052C10.6928 4.14048 10.3536 4 10 4M21.3333 4V8H17.3333V10.6667H21.3333V14.6667H24V10.6667H28V8H24V4" fill="#1B2934"/>
</svg>
