<svg width="18" height="16" viewBox="0 0 18 16" fill="none" xmlns="http://www.w3.org/2000/svg">
<path d="M2.56588 11.3814V14.9737C2.56588 15.2459 2.67401 15.5069 2.86649 15.6994C3.05897 15.8919 3.32002 16 3.59223 16C3.86444 16 4.12549 15.8919 4.31797 15.6994C4.51045 15.5069 4.61858 15.2459 4.61858 14.9737V11.3814H2.56588ZM0 8.81555V5.73649C0 5.32818 0.1622 4.9366 0.450917 4.64788C0.739634 4.35917 1.13122 4.19697 1.53953 4.19697H4.61858V10.3551H1.53953C1.13122 10.3551 0.739634 10.1929 0.450917 9.90416C0.1622 9.61544 0 9.22385 0 8.81555ZM13.8557 7.27602V6.76284C13.8557 6.35454 13.6935 5.96295 13.4048 5.67423C13.1161 5.38552 12.7245 5.22332 12.3162 5.22332V8.81555C12.7245 8.81555 13.1161 8.65335 13.4048 8.36463C13.6935 8.07591 13.8557 7.68433 13.8557 7.27602ZM5.64493 10.8682V3.17061L10.5011 0.0802698C10.5787 0.030875 10.6682 0.00324413 10.7601 0.000268626C10.852 -0.00270688 10.9431 0.0190826 11.0237 0.0633565C11.1043 0.10763 11.1716 0.172761 11.2184 0.251933C11.2652 0.331105 11.2899 0.421407 11.2899 0.51339V13.5255C11.2899 13.6175 11.2652 13.7078 11.2184 13.7869C11.1716 13.8661 11.1043 13.9312 11.0237 13.9755C10.9431 14.0198 10.852 14.0416 10.7601 14.0386C10.6682 14.0356 10.5787 14.008 10.5011 13.9586L5.64493 10.8682Z" fill="#00A884"/>
<path fill-rule="evenodd" clip-rule="evenodd" d="M17.3618 4.42533C17.3993 4.4814 17.4253 4.54429 17.4384 4.6104C17.4515 4.67652 17.4514 4.74457 17.4382 4.81067C17.425 4.87676 17.3989 4.93961 17.3614 4.99562C17.3239 5.05163 17.2758 5.09971 17.2197 5.13711L15.6802 6.16346C15.6241 6.20086 15.5612 6.22685 15.4951 6.23995C15.429 6.25305 15.3609 6.253 15.2948 6.2398C15.2287 6.2266 15.1659 6.20051 15.1099 6.16302C15.0539 6.12553 15.0058 6.07738 14.9684 6.02131C14.931 5.96524 14.905 5.90235 14.8919 5.83624C14.8788 5.77012 14.8789 5.70208 14.8921 5.63598C14.9053 5.56989 14.9313 5.50704 14.9688 5.45103C15.0063 5.39502 15.0545 5.34694 15.1105 5.30953L16.6501 4.28318C16.7061 4.24577 16.769 4.21977 16.8351 4.20667C16.9013 4.19357 16.9693 4.19362 17.0354 4.20682C17.1015 4.22002 17.1644 4.24611 17.2204 4.2836C17.2764 4.3211 17.3245 4.36926 17.3618 4.42533ZM14.8822 7.7892C14.8822 7.6531 14.9362 7.52257 15.0325 7.42633C15.1287 7.33009 15.2593 7.27602 15.3954 7.27602H17.4481C17.5842 7.27602 17.7147 7.33009 17.8109 7.42633C17.9072 7.52257 17.9612 7.6531 17.9612 7.7892C17.9612 7.9253 17.9072 8.05583 17.8109 8.15207C17.7147 8.24831 17.5842 8.30238 17.4481 8.30238H15.3954C15.2593 8.30238 15.1287 8.24831 15.0325 8.15207C14.9362 8.05583 14.8822 7.9253 14.8822 7.7892ZM14.9684 9.55709C15.0058 9.50101 15.0539 9.45285 15.1099 9.41536C15.1659 9.37787 15.2287 9.35178 15.2948 9.33858C15.3609 9.32538 15.429 9.32532 15.4951 9.33843C15.5612 9.35153 15.6241 9.37753 15.6802 9.41494L17.2197 10.4413C17.2758 10.4787 17.3239 10.5268 17.3614 10.5828C17.3989 10.6388 17.425 10.7016 17.4382 10.7677C17.4514 10.8338 17.4514 10.9019 17.4383 10.968C17.4252 11.0341 17.3993 11.097 17.3618 11.1531C17.3244 11.2091 17.2764 11.2573 17.2204 11.2948C17.1643 11.3323 17.1015 11.3584 17.0354 11.3716C16.9693 11.3848 16.9013 11.3848 16.8351 11.3717C16.769 11.3586 16.7061 11.3326 16.6501 11.2952L15.1105 10.2689C15.0545 10.2315 15.0063 10.1834 14.9688 10.1274C14.9313 10.0714 14.9052 10.0085 14.892 9.94242C14.8788 9.87633 14.8788 9.80828 14.8919 9.74216C14.905 9.67604 14.931 9.61316 14.9684 9.55709Z" fill="#00A884"/>
</svg>
