<svg width="16" height="16" viewBox="0 0 16 16" fill="none" xmlns="http://www.w3.org/2000/svg">
<path d="M2.6665 6H3.99984V2H5.33317L7.61317 6H10.6665V2H11.9998V6H13.3332V7.33333H11.9998V8.66667H13.3332V10H11.9998V14H10.6665L8.37984 10H5.33317V14H3.99984V10H2.6665V8.66667H3.99984V7.33333H2.6665V6ZM5.33317 6H6.0865L5.33317 4.68667V6ZM5.33317 7.33333V8.66667H7.61317L6.85317 7.33333H5.33317ZM10.6665 11.3333V10H9.89984L10.6665 11.3333ZM8.37317 7.33333L9.13984 8.66667H10.6665V7.33333H8.37317Z" fill="#E3ECF1"/>
</svg>
